<?xml version="1.0" standalone="no"?>
<!DOCTYPE svg PUBLIC "-//W3C//DTD SVG 20010904//EN"
 "http://www.w3.org/TR/2001/REC-SVG-20010904/DTD/svg10.dtd">
<svg version="1.0" xmlns="http://www.w3.org/2000/svg"
 width="1112.000000pt" height="1112.000000pt" viewBox="0 0 1112.000000 1112.000000"
 preserveAspectRatio="xMidYMid meet">
<metadata>
Created by potrace 1.11, written by Peter Selinger 2001-2013
</metadata>
<g transform="translate(0.000000,1112.000000) scale(0.100000,-0.100000)"
fill="#000000" stroke="none">
<path d="M31 9399 l-31 -31 0 -3334 c0 -3004 2 -3337 16 -3359 8 -13 33 -30
55 -39 36 -14 271 -16 2419 -16 l2380 0 0 -404 c0 -222 3 -418 6 -435 4 -18
20 -45 36 -62 l30 -29 3058 0 3058 0 31 31 31 31 0 2227 0 2228 -24 26 c-13
14 -41 30 -62 36 -27 7 -367 11 -1076 11 l-1038 0 0 1544 0 1544 -31 31 -31
31 -4398 0 -4398 0 -31 -31z m10859 -5419 l0 -2060 -2890 -2 -2890 -3 0 2063
0 2062 2890 0 2890 0 0 -2060z"/>
</g>
</svg>
