<svg xmlns="http://www.w3.org/2000/svg" width="1101" height="545" viewBox="0 0 1101 545" id="logo_mit_unterschrift">
    <defs>
        <symbol id="S">
            <path
                d="M 0.0261 84.9552 C -0.3749 100.0112 3.8471 110.8672 12.7362 117.5222 C 21.6092 124.1792 33.501 127.4392 48.374 127.3042 C 69.1551 126.4083 82.2491 121.7572 87.6691 113.3532 C 93.0821 104.9472 95.4001 98.1572 94.6371 92.9852 C 94.429 82.9743 91.445 75.5393 85.6521 70.6812 C 79.8761 65.8212 72.5122 62.3142 63.584 60.1612 L 33.5131 52.6542 C 28.5681 51.5242 24.3471 49.5092 20.8591 46.6102 C 17.3791 43.7112 15.5591 39.3822 15.4061 33.6262 C 15.683 24.4932 18.7921 18.0482 24.7251 14.2872 C 30.6701 10.5262 37.7511 8.7062 45.9741 8.8302 C 54.8651 8.8332 62.4881 11.2262 68.8341 16.0102 C 75.1971 20.7932 78.667 27.9462 79.2771 37.4662 L 90.1111 37.4662 C 89.8451 24.7532 85.4892 15.3202 77.0561 9.1722 C 68.613 3.0262 58.1921 -0.0308 45.8031 0.0002 C 29.1831 0.6452 18.0432 4.7502 12.4041 12.3172 C 6.7641 19.8842 4.1531 27.0452 4.5541 33.7982 C 4.7801 43.2982 7.442 50.2692 12.54 54.7052 C 17.637 59.1442 23.887 62.1842 31.279 63.8292 L 58.4451 70.6372 C 64.469 71.9142 70.1091 74.2513 75.3881 77.6422 C 80.65 81.0362 83.4581 86.2102 83.8021 93.1612 C 83.248 102.1582 79.4281 108.6463 72.33 112.6282 C 65.2321 116.6062 58.1671 118.5562 51.138 118.4742 C 39.5971 118.6843 30.0241 116.3042 22.4002 111.3392 C 14.7771 106.3742 10.9281 97.5812 10.86 84.9552 L 0.0261 84.9552"
            />
        </symbol>
        <symbol id="e">
            <path
                d="M 4.2343 15.8789 C 4.5783 12.682 5.7143 9.9011 7.6633 7.553 C 9.5993 5.184 12.3402 3.941 15.8533 3.8281 C 19.3652 3.9401 22.0793 5.168 24.0043 7.5201 C 25.9233 9.873 26.9482 12.6541 27.0613 15.878 L 4.2343 15.878 M 31.2932 19.7119 C 31.5133 14.5779 30.3923 10.054 27.9603 6.153 C 25.5223 2.251 21.4813 0.201 15.8523 0 C 10.2912 0.191 6.2372 2.128 3.7213 5.8099 C 1.2042 9.491 -0.0448 13.706 0.0012 18.4799 C -0.0448 23.114 1.2052 27.086 3.7213 30.3909 C 6.2372 33.707 10.2912 35.44 15.8523 35.593 C 20.2642 35.552 23.6993 34.472 26.1593 32.366 C 28.6183 30.2661 30.2803 27.458 31.1523 23.9279 L 26.9363 23.9279 C 25.7033 28.853 22.0103 31.465 15.8533 31.769 C 11.7613 31.6061 8.7992 30.278 6.9703 27.7899 C 5.1473 25.296 4.2343 22.601 4.2343 19.7119 L 31.2932 19.7119"
            />
        </symbol>
        <symbol id="t">
            <path
                d="M 26.319 0 L 15.4741 0 L 15.4741 26.825 L 0 26.825 L 0 35.652 L 15.4741 35.652 L 15.4741 95.828 C 15.3101 103.163 16.6841 108.286 19.6271 111.2 C 22.571 114.114 27.613 115.513 34.7391 115.397 C 37.9431 115.287 41.1711 115.174 44.375 115.064 L 44.375 106.058 C 41.2781 106.397 38.1811 106.567 35.083 106.567 C 31.337 106.298 28.9071 105.177 27.793 103.202 C 26.6961 101.226 26.1941 98.486 26.3181 94.979 L 26.3181 35.654 L 44.375 35.654 L 44.375 26.827 L 26.3181 26.827 L 26.3181 0"
            />
        </symbol>
        <symbol id="u">
            <path
                d="M 71.9789 0 L 61.1458 0 L 61.1458 46.499 C 61.1839 55.861 59.077 64.033 54.7979 71.018 C 50.5028 78 43.7559 81.665 34.532 82.018 C 26.0719 82.001 20.0469 79.936 16.4479 75.821 C 12.8529 71.704 10.9889 65.651 10.8359 57.652 L 10.8359 0 L 0.0028 0 L 0.0028 57.48 C -0.0941 67.881 2.2968 76.016 7.186 81.885 C 12.0739 87.76 20.0469 90.747 31.1019 90.848 C 37.8109 90.822 43.8399 89.248 49.2149 86.129 C 54.59 83.006 58.7259 78.491 61.6588 72.582 L 62.0039 72.582 L 62.0039 88.57 L 71.9789 88.57 L 71.9789 0"
            />
        </symbol>

        <symbol id="n">
            <path
                d="M 0.001 36.027 L 4.234 36.027 L 4.234 15.886 C 4.336 12.442 5.372 9.616 7.347 7.431 C 9.312 5.247 12.081 4.11 15.61 4.0431 C 19.134 4.098 21.555 5.096 22.9 7.0311 C 24.239 8.956 24.876 11.444 24.809 14.4899 L 24.809 36.026 L 29.042 36.026 L 29.042 13.813 C 29.126 9.648 28.214 6.35 26.3 3.929 C 24.38 1.497 20.936 0.27 15.97 0.2141 C 13.342 0.253 10.972 0.934 8.856 2.257 C 6.739 3.569 5.247 5.313 4.375 7.458 L 4.233 7.458 L 4.233 0 L 1e-13 1e-13 L 0 36.027"
            />
        </symbol>
        <symbol id="o">
            <path
                d="M 16.7798 3.829 C 20.9729 3.9691 24.1099 5.421 26.1859 8.1851 C 28.2749 10.955 29.3268 14.1629 29.3159 17.799 C 29.3268 21.4401 28.2749 24.632 26.1859 27.403 C 24.1099 30.1721 20.9729 31.624 16.7798 31.77 C 12.587 31.624 9.4459 30.1709 7.3569 27.403 C 5.2679 24.632 4.2328 21.4401 4.2328 17.799 C 4.2328 14.162 5.2679 10.954 7.3569 8.1851 C 9.4459 5.4199 12.587 3.968 16.7798 3.829 M 16.7798 0 C 11.2869 0.146 7.1268 1.947 4.2899 5.382 C 1.4359 8.7921 0.011 12.946 0 17.799 C 0.011 22.64 1.4368 26.7941 4.2899 30.227 C 7.1268 33.656 11.2869 35.44 16.7798 35.593 C 22.2729 35.44 26.4339 33.655 29.2699 30.227 C 32.1079 26.7941 33.5309 22.64 33.548 17.799 C 33.53 12.946 32.1079 8.7921 29.2699 5.382 C 26.4349 1.9479 22.2729 0.147 16.7798 0"
            />
        </symbol>
        <symbol id="r">
            <path
                d="M 0 36.025 L 4.233 36.025 L 4.233 16.909 C 4.289 13.093 5.505 9.962 7.858 7.5421 C 10.221 5.122 13.375 3.945 17.332 4.042 L 17.332 0.2139 C 10.819 0.045 6.378 2.825 4.024 8.556 L 3.901 8.556 L 3.901 0 L 1e-13 1e-13 L 0 36.025"
            />
        </symbol>
        <symbol id="-">
            <path
                d="M 17.332 3.986 L 17.332 0 L 1e-13 1e-13 L 0 3.986 L 17.332 3.986"
            />
        </symbol>
    </defs>

    <g>
        <title>StuSta-Alumni e.V. - Vernetzen, Fördern, Informieren</title>
        <g
            id="squares"
            stroke="#010202"
            stroke-linecap="round"
            stroke-linejoin="round"
            stroke-miterlimit="10"
            stroke-width="11"
        >
            <g transform="translate(5.5 5.5)">
                <path
                    id="bigSquare"
                    d="M 0 0 L 435 0 L 435 329 L 0 329 Z"
                    fill="#a9a9aa"
                />
            </g>

            <g transform="translate(249.5 163.5)">
                <path
                    id="smallSquare"
                    d="M 0 0 L 301 0 L 301 218 L 0 218 Z"
                    fill="#ffffff"
                />
            </g>
        </g>

        <g id="text" fill="currentColor">
            <g id="StuSta">
                <use href="#S" transform="translate(603.5429 0)"/>
                <use href="#t" transform="translate(706.5269 9.6312)"/>
                <use href="#u" transform="translate(766.5931 36.4562)"/>
                <use href="#S" transform="translate(857.5438 0)"/>
                <use href="#t" transform="translate(960.5291 9.6312)"/>
                <g transform="translate(1016.07 34.1455)">
                    <path
                        id="a"
                        d="M 63.3879 56.5438 C 63.197 65.2807 60.0139 72.0767 53.8309 76.9337 C 47.6539 81.7907 40.1539 84.2557 31.3199 84.3287 C 25.8729 84.2787 21.136 82.7127 17.1339 79.6357 C 13.1229 76.5577 11.027 72.2917 10.834 66.8357 C 11.416 58.6097 16.1639 53.4497 25.069 51.3537 C 33.96 49.2597 43.47 47.6187 53.598 46.4227 C 55.219 46.1937 56.999 45.7927 58.9139 45.2217 C 60.8309 44.6507 62.204 43.7357 63.0229 42.4777 L 63.385 42.4777 L 63.385 56.5438 M 15.361 29.4427 C 15.667 22.2797 18.0399 17.0487 22.4869 13.7487 C 26.929 10.4457 32.6549 8.8147 39.64 8.8607 C 46.3309 8.7077 51.913 9.9147 56.402 12.4837 C 60.89 15.0517 63.2219 19.9037 63.387 27.0407 C 63.375 31.7547 62.1379 34.8487 59.697 36.3237 C 57.266 37.8017 53.735 38.7047 49.1389 39.0477 C 36.4189 39.8777 25.167 41.8587 15.417 44.9857 C 5.651 48.1117 0.515 55.6247 0 67.5217 C 0.21 76.3797 3.1649 82.8797 8.861 87.0197 C 14.569 91.1567 21.762 93.2057 30.426 93.1597 C 39.0559 93.1337 45.861 91.6027 50.845 88.5677 C 55.8469 85.5327 60.194 81.1477 63.9 75.4107 L 64.251 75.4107 C 64.099 80.2007 64.845 83.9607 66.4829 86.6967 C 68.1389 89.4347 71.637 90.8277 76.984 90.8817 C 79.583 90.9097 81.9459 90.6857 84.025 90.2147 L 84.025 81.3647 C 83.053 81.7657 81.917 81.9947 80.594 82.0517 C 76.3159 81.9387 74.1909 79.7577 74.22 75.5077 L 74.22 28.3177 C 73.845 16.8038 70.3209 9.1377 63.641 5.3167 C 56.9709 1.4967 49.427 -0.2673 41.052 0.0327 C 30.512 -0.0413 21.955 2.2697 15.3879 6.9677 C 8.8159 11.6637 5.203 19.1828 4.526 29.5247 L 15.361 29.4427"
                    />
                </g>
            </g>

            <g id="Alumni">
                <g transform="translate(592.985 219.3682)">
                    <path
                        id="A"
                        d="M 55.501 11.105 L 79.21 75.187 L 30.931 75.187 L 55.501 11.105 M 0 122.749 L 12.546 122.749 L 27.318 84.02 L 83.166 84.02 L 98.113 122.749 L 110.654 122.749 L 62.544 0 L 49.488 0 L 0 122.749"
                    />
                </g>
                <g transform="translate(716.044 219.3682)">
                    <path
                        id="l"
                        d="M 0 122.749 L 10.834 122.749 L 10.834 0 L 1e-13 1e-13 L 0 122.749"
                    />
                </g>
                <use href="#u" transform="translate(745.8842 253.5423)"/>
                <g transform="translate(839.1259 251.2681)">
                    <path
                        id="m"
                        d="M 0.001 90.8491 L 10.834 90.8491 L 10.834 41.4271 C 10.845 31.9601 12.97 24.2121 17.2091 18.1772 C 21.4581 12.1422 28.291 9.0282 37.7341 8.8291 C 44.639 8.9881 49.5571 11.1461 52.472 15.3061 C 55.389 19.4541 56.7621 24.6191 56.5981 30.7911 L 56.5981 90.8491 L 67.4321 90.8491 L 67.4321 40.7431 C 67.2621 32.2051 68.9581 24.8241 72.53 18.6072 C 76.0851 12.3901 82.5391 9.1292 91.8851 8.8301 C 99.6511 8.8521 105.178 10.7741 108.444 14.5952 C 111.7061 18.4151 113.3041 23.9881 113.2101 31.3002 L 113.2101 90.8501 L 124.043 90.8501 L 124.043 30.7921 C 123.998 10.0632 114.0961 -0.2059 94.3331 0.0031 C 88.274 -0.0089 82.709 1.3821 77.6 4.1961 C 72.4861 6.9991 68.53 11.2951 65.72 17.0581 C 63.957 11.2941 60.7521 6.9981 56.0851 4.1961 C 51.428 1.3821 46.0701 -0.0089 40.001 0.0031 C 32.8631 0.0601 26.8731 1.6071 22.041 4.6491 C 17.1971 7.7011 13.349 11.8941 10.483 17.2341 L 9.975 17.2341 L 9.975 2.2742 L 0 2.2742 L 0 90.8491"
                    />
                </g>
                <g transform="translate(983.739 251.2702)">
                    <path
                        id="n--big"
                        d="M 0 90.847 L 10.8461 90.847 L 10.8461 39.199 C 11.082 30.349 13.61 23.12 18.4301 17.509 C 23.262 11.904 29.9971 9.01 38.652 8.828 C 47.2471 8.987 53.181 11.541 56.459 16.48 C 59.7371 21.424 61.291 27.794 61.139 35.593 L 61.139 90.847 L 71.973 90.847 L 71.973 33.874 C 72.183 23.227 69.876 14.942 65.083 9.02 C 60.2791 3.097 51.746 0.091 39.512 0 C 33.097 0.068 27.303 1.673 22.1221 4.815 C 16.9561 7.957 13.306 12.212 11.181 17.576 L 10.847 17.576 L 10.847 2.272 L 0.001 2.272 L 0.001 90.847"
                    />
                </g>
                <g transform="translate(1079.2361 0)">
                    <g id="i">
                        <g transform="translate(0 253.5423)">
                            <path
                                d="M 0 88.575 L 10.8359 88.575 L 10.8359 0 L 1e-13 1e-13 L 0 88.575"
                            />
                        </g>
                        <g transform="translate(0 219.5832)">
                            <path
                                d="M 0 17.514 L 10.8359 17.514 L 10.8359 0 L 1e-13 1e-13 L 0 17.514"
                            />
                        </g>
                    </g>
                </g>
            </g>

            <g id="Vernetzen">
                <g transform="translate(65.879 494.8242)">
                    <path
                        id="V"
                        d="M 17.556 49.6481 L 22.786 49.6481 L 40.315 0 L 35.552 0 L 20.337 45.6061 L 20.197 45.6061 L 4.841 0 L 1e-13 1e-13 L 17.556 49.6481"
                    />
                </g>
                <use href="#e" transform="translate(109.1537 508.6602)"/>
                <use href="#r" transform="translate(147.308 508.4472)"/>
                <use href="#n" transform="translate(169.091 508.4452)"/>
                <use href="#e" transform="translate(203.9849 508.6602)"/>
                <g transform="translate(238.261 498.0222)">
                    <path
                        id="t--small"
                        d="M 10.3629 0 L 6.13 0 L 6.13 10.6389 L 0 10.6389 L 0 14.467 L 6.13 14.467 L 6.13 38.176 C 5.787 43.878 8.303 46.5639 13.7119 46.232 C 14.984 46.191 16.257 46.136 17.528 46.089 L 17.528 42.206 C 16.301 42.341 15.069 42.408 13.836 42.408 C 11.151 42.1611 9.991 40.6401 10.3629 37.8331 L 10.3629 14.467 L 17.529 14.467 L 17.529 10.6389 L 10.3629 10.6389 L 10.3629 0"
                    />
                </g>
                <g transform="translate(258.104 508.6602)">
                    <path
                        id="z"
                        d="M 28.095 3.248 L 28.095 0 L 1.548 0 L 1.548 3.829 L 22.713 3.829 L 0 31.9119 L 0 35.593 L 29.035 35.593 L 29.035 31.77 L 5.117 31.77 L 28.095 3.248"
                    />
                </g>
                <use href="#e" transform="translate(292.3848 508.6602)"/>
                <use href="#n" transform="translate(330.538 508.4452)"/>
            </g>

            <use href="#-" transform="translate(387.132 524.4652)"/>

            <g id="Fördern">
                <g transform="translate(431.73 494.9593)">
                    <path
                        id="F"
                        d="M 0 49.5129 L 4.2339 49.5129 L 4.2339 26.6759 L 27.56 26.6759 L 27.56 22.7069 L 4.2339 22.7069 L 4.2339 3.9859 L 30.493 3.9859 L 30.493 0 L 1e-13 1e-13 L 0 49.5129"
                    />
                </g>
                <g id="ö">
                    <use href="#o" transform="translate(466.619 508.6602)"/>
                    <g transform="translate(486.912 494.8242)">
                        <path
                            d="M 4.233 6.5291 L 4.233 0 L 1e-13 1e-13 L 0 6.5291 L 4.233 6.5291"
                        />
                    </g>
                    <g transform="translate(475.6361 494.8242)">
                        <path
                            d="M 4.234 6.5291 L 4.234 0 L 1e-13 1e-13 L 0 6.5291 L 4.234 6.5291"
                        />
                    </g>
                </g>
                <use href="#r" transform="translate(507.3341 508.4472)"/>
                <g transform="translate(526.8658 494.8242)">
                    <path
                        id="d"
                        d="M 4.2332 31.6351 C 4.2052 28.0831 5.1451 24.9031 7.0702 22.088 C 8.9792 19.296 12.0752 17.8201 16.3533 17.6641 C 21.0811 17.8201 24.4591 19.296 26.4351 22.088 C 28.4151 24.902 29.3843 28.0831 29.3172 31.6351 C 29.3843 35.1921 28.4162 38.361 26.4351 41.17 C 24.4591 43.963 21.0811 45.4421 16.3533 45.6061 C 12.0752 45.4431 8.9792 43.963 7.0702 41.17 C 5.1462 38.361 4.2052 35.1921 4.2332 31.6351 M 33.5492 0 L 29.3172 0 L 29.3172 21.4691 L 29.1752 21.4691 C 28.1412 19.0491 26.4522 17.1691 24.0982 15.8401 C 21.7632 14.524 19.1742 13.8491 16.3533 13.837 C 10.7351 14.0001 6.6152 15.796 3.9572 19.257 C 1.3011 22.7141 -0.0168 26.84 0.0002 31.636 C -0.0168 36.426 1.3001 40.564 3.9572 44.0081 C 6.6152 47.465 10.7351 49.277 16.3533 49.4301 C 19.1332 49.389 21.7632 48.6531 24.2222 47.228 C 26.6992 45.821 28.4721 44.0081 29.5191 41.7901 L 29.6602 41.7901 L 29.6602 49.6481 L 33.5502 49.6481 L 33.5502 0"
                    />
                </g>
                <use href="#e" transform="translate(566.5652 508.6602)"/>
                <use href="#r" transform="translate(604.7221 508.4472)"/>
                <use href="#n" transform="translate(626.512 508.4452)"/>
            </g>

            <use href="#-" transform="translate(682.609 524.4652)"/>

            <g id="Informieren">
                <g transform="translate(727.208 494.8242)">
                    <path
                        id="I"
                        d="M 0 49.6481 L 4.234 49.6481 L 4.234 0 L 1e-13 1e-13 L 0 49.6481"
                    />
                </g>
                <use href="#n" transform="translate(742.563 508.4452)"/>
                <g transform="translate(775.962 495.0425)">
                    <path
                        id="f"
                        d="M 17.1959 13.6177 L 10.2391 13.6177 L 10.2391 10.5727 C 10.165 8.6467 10.3621 7.0436 10.818 5.7817 C 11.286 4.5257 12.659 3.8797 14.9391 3.8347 C 15.923 3.8347 16.96 3.9577 18.08 4.1667 L 18.08 0.2937 C 16.809 0.0857 15.603 -0.0093 14.4719 0.0007 C 11.1061 0.0578 8.837 1.0536 7.649 2.9617 C 6.445 4.8878 5.9059 7.3747 6.0051 10.4487 L 6.0051 13.6177 L 0 13.6177 L 0 17.4458 L 6.0051 17.4458 L 6.0051 49.4287 L 10.2391 49.4287 L 10.2391 17.4458 L 17.1959 17.4458 L 17.1959 13.6177"
                    />
                </g>
                <use href="#o" transform="translate(795.3701 508.6602)"/>
                <use href="#r" transform="translate(836.085 508.4472)"/>
                <g transform="translate(857.8689 508.4452)">
                    <path
                        id="m--small"
                        d="M 0 36.027 L 4.2331 36.027 L 4.2331 16.758 C 4.2331 13.06 5.094 10.049 6.7822 7.695 C 8.4821 5.331 11.2191 4.109 14.9951 4.0431 C 17.7661 4.098 19.7281 4.942 20.9061 6.575 C 22.066 8.196 22.623 10.201 22.55 12.6091 L 22.55 36.026 L 26.7831 36.026 L 26.7831 16.493 C 26.716 13.161 27.3901 10.28 28.8201 7.8581 C 30.2441 5.426 32.8281 4.1551 36.5781 4.0431 C 42.5662 4.127 45.4041 7.0491 45.1161 12.813 L 45.1161 36.027 L 49.3321 36.027 L 49.3321 12.61 C 49.36 4.392 45.4321 0.271 37.5621 0.215 C 32.4281 0.2269 28.623 2.579 26.1191 7.2511 C 25.4271 4.9321 24.1541 3.1761 22.313 1.981 C 20.4781 0.8049 18.334 0.2141 15.9131 0.2141 C 10.2511 0.4741 6.322 2.837 4.0991 7.323 L 3.9011 7.323 L 3.9011 0 L 0.0012 0 L 0.0012 36.027"
                    />
                </g>
                <g id="i--small">
                    <g transform="translate(915.487 508.4472)">
                        <path
                            d="M 0 36.025 L 4.2339 36.025 L 4.2339 0 L 1e-13 1e-13 L 0 36.025"
                        />
                    </g>
                    <g transform="translate(915.487 494.8242)">
                        <path
                            d="M 0 6.5291 L 4.2339 6.5291 L 4.2339 0 L 1e-13 1e-13 L 0 6.5291"
                        />
                    </g>
                </g>
                <use href="#e" transform="translate(926.03 508.6602)"/>
                <use href="#r" transform="translate(964.183 508.4472)"/>
                <use href="#e" transform="translate(983.7161 508.6602)"/>
                <use href="#n" transform="translate(1021.87 508.4452)"/>
            </g>
        </g>
    </g>
</svg>
