<?xml version="1.0" encoding="utf-8"?>
<!-- Generator: Adobe Illustrator 16.0.0, SVG Export Plug-In . SVG Version: 6.00 Build 0)  -->
<!DOCTYPE svg PUBLIC "-//W3C//DTD SVG 1.1//EN" "http://www.w3.org/Graphics/SVG/1.1/DTD/svg11.dtd">
<svg version="1.1" id="Ebene_1" xmlns="http://www.w3.org/2000/svg" xmlns:xlink="http://www.w3.org/1999/xlink" x="0px" y="0px"
	 width="1190.55px" height="841.89px" viewBox="0 0 1190.55 841.89" enable-background="new 0 0 1190.55 841.89"
	 xml:space="preserve">
<g>
	<rect x="50.84" y="235.798" fill-rule="evenodd" clip-rule="evenodd" fill="#A9A9AA" width="434.723" height="329.167"/>
	
		<rect x="50.84" y="235.798" fill="none" stroke="#010202" stroke-width="11" stroke-linecap="round" stroke-linejoin="round" stroke-miterlimit="10" width="434.723" height="329.167"/>
	<rect x="295.286" y="394.13" fill-rule="evenodd" clip-rule="evenodd" fill="#FFFFFF" width="301.389" height="218.057"/>
	
		<rect x="295.286" y="394.13" fill="none" stroke="#010202" stroke-width="11" stroke-linecap="round" stroke-linejoin="round" stroke-miterlimit="10" width="301.389" height="218.057"/>
	<path fill-rule="evenodd" clip-rule="evenodd" fill="#010202" d="M699.326,461.961l23.709,64.082h-48.279L699.326,461.961
		 M643.825,573.605h12.546l14.772-38.729h55.848l14.947,38.729h12.541l-48.11-122.749h-13.056L643.825,573.605"/>
	
		<polygon fill="none" stroke="#010202" stroke-width="0.288" stroke-linecap="round" stroke-linejoin="round" stroke-miterlimit="10" points="
		699.451,462.188 723.063,526.077 674.45,526.077 	"/>
	<polyline fill-rule="evenodd" clip-rule="evenodd" fill="#010202" points="766.884,573.605 777.718,573.605 777.718,450.856 
		766.884,450.856 766.884,573.605 	"/>
	<path fill-rule="evenodd" clip-rule="evenodd" fill="#010202" d="M868.7,485.03h-10.834v46.5c0.056,9.37-2.068,17.542-6.347,24.521
		c-4.289,6.979-11.038,10.653-20.261,11.003c-8.46-0.017-14.489-2.085-18.084-6.198c-3.601-4.115-5.46-10.174-5.601-18.17V485.03
		h-10.846v57.486c-0.096,10.398,2.295,18.536,7.184,24.403c4.889,5.871,12.857,8.86,23.916,8.963
		c6.709-0.021,12.733-1.6,18.108-4.72c5.374-3.118,9.517-7.635,12.443-13.546h0.351v15.988h9.97V485.03"/>
	<path fill-rule="evenodd" clip-rule="evenodd" fill="#010202" d="M889.967,573.605H900.8v-49.422
		c0.011-9.467,2.136-17.215,6.375-23.25c4.249-6.035,11.082-9.149,20.525-9.348c6.905,0.159,11.823,2.317,14.738,6.477
		c2.917,4.148,4.29,9.313,4.126,15.485v60.058h10.834v-50.106c-0.17-8.538,1.526-15.919,5.098-22.136
		c3.555-6.217,10.009-9.478,19.355-9.777c7.766,0.022,13.293,1.944,16.559,5.765c3.262,3.82,4.86,9.393,4.766,16.705v59.55h10.833
		v-60.058c-0.045-20.729-9.947-30.998-29.71-30.789c-6.059-0.012-11.624,1.379-16.733,4.193c-5.114,2.803-9.07,7.099-11.88,12.862
		c-1.763-5.764-4.968-10.06-9.635-12.862c-4.657-2.814-10.015-4.205-16.084-4.193c-7.138,0.057-13.128,1.604-17.96,4.646
		c-4.844,3.052-8.692,7.245-11.558,12.585h-0.508V485.03h-9.975V573.605"/>
	<path fill-rule="evenodd" clip-rule="evenodd" fill="#010202" d="M1034.579,573.605h10.846v-51.648
		c0.236-8.85,2.764-16.079,7.584-21.69c4.832-5.605,11.567-8.499,20.222-8.681c8.595,0.159,14.529,2.713,17.807,7.652
		c3.278,4.944,4.832,11.314,4.68,19.113v55.254h10.834v-56.973c0.21-10.647-2.097-18.932-6.89-24.854
		c-4.804-5.923-13.337-8.929-25.571-9.02c-6.415,0.068-12.209,1.673-17.39,4.815c-5.166,3.142-8.816,7.397-10.941,12.761h-0.334
		V485.03h-10.846V573.605"/>
	<polyline fill-rule="evenodd" clip-rule="evenodd" fill="#010202" points="1130.076,573.605 1140.912,573.605 1140.912,485.03 
		1130.076,485.03 1130.076,573.605 	"/>
	<polyline fill-rule="evenodd" clip-rule="evenodd" fill="#010202" points="1130.076,468.585 1140.912,468.585 1140.912,451.071 
		1130.076,451.071 1130.076,468.585 	"/>
	<path fill-rule="evenodd" clip-rule="evenodd" fill="#010202" d="M654.409,316.443c-0.401,15.056,3.821,25.912,12.71,32.567
		c8.873,6.657,20.765,9.917,35.638,9.782c20.781-0.896,33.875-5.547,39.295-13.951c5.413-8.406,7.731-15.196,6.968-20.368
		c-0.208-10.011-3.192-17.446-8.985-22.304c-5.776-4.86-13.14-8.367-22.068-10.52l-30.071-7.507
		c-4.945-1.13-9.166-3.145-12.654-6.044c-3.48-2.899-5.3-7.228-5.453-12.984c0.277-9.133,3.386-15.578,9.319-19.339
		c5.945-3.761,13.026-5.581,21.249-5.457c8.891,0.003,16.514,2.396,22.86,7.18c6.363,4.783,9.833,11.936,10.443,21.456h10.834
		c-0.266-12.713-4.622-22.146-13.055-28.294c-8.443-6.146-18.864-9.203-31.253-9.172c-16.62,0.645-27.76,4.75-33.399,12.317
		c-5.64,7.567-8.251,14.728-7.85,21.481c0.226,9.5,2.888,16.471,7.986,20.907c5.097,4.439,11.347,7.479,18.739,9.124l27.166,6.808
		c6.024,1.277,11.664,3.614,16.943,7.005c5.262,3.394,8.07,8.568,8.414,15.519c-0.554,8.997-4.374,15.485-11.472,19.467
		c-7.098,3.978-14.163,5.928-21.192,5.846c-11.541,0.21-21.114-2.17-28.738-7.135c-7.623-4.965-11.472-13.758-11.54-26.384H654.409"
		/>
	<path fill-rule="evenodd" clip-rule="evenodd" fill="#010202" d="M783.686,241.119h-10.845v26.825h-15.474v8.827h15.474v60.176
		c-0.164,7.335,1.21,12.458,4.153,15.372c2.944,2.914,7.986,4.313,15.112,4.197c3.204-0.11,6.432-0.223,9.636-0.333v-9.006
		c-3.097,0.339-6.194,0.509-9.292,0.509c-3.746-0.269-6.176-1.39-7.29-3.365c-1.097-1.976-1.599-4.716-1.475-8.223v-59.325h18.057
		v-8.827h-18.057V241.119"/>
	<path fill-rule="evenodd" clip-rule="evenodd" fill="#010202" d="M889.412,267.944h-10.833v46.499
		c0.038,9.362-2.069,17.534-6.348,24.519c-4.295,6.982-11.042,10.647-20.266,11c-8.46-0.017-14.485-2.082-18.084-6.197
		c-3.595-4.117-5.459-10.17-5.612-18.169v-57.652h-10.833v57.48c-0.097,10.401,2.294,18.536,7.183,24.405
		c4.888,5.875,12.861,8.862,23.916,8.963c6.709-0.026,12.738-1.6,18.113-4.719c5.375-3.123,9.511-7.638,12.444-13.547h0.345v15.988
		h9.975V267.944"/>
	<path fill-rule="evenodd" clip-rule="evenodd" fill="#010202" d="M908.412,316.443c-0.418,15.056,3.814,25.912,12.693,32.567
		c8.89,6.657,20.763,9.917,35.638,9.782c20.78-0.896,33.875-5.547,39.294-13.951c5.414-8.406,7.749-15.196,6.985-20.368
		c-0.21-10.011-3.211-17.446-8.985-22.304c-5.793-4.86-13.141-8.367-22.069-10.52l-30.083-7.507
		c-4.944-1.13-9.155-3.145-12.642-6.044c-3.498-2.899-5.318-7.228-5.471-12.984c0.276-9.133,3.385-15.578,9.33-19.339
		c5.935-3.761,13.016-5.581,21.238-5.457c8.901,0.003,16.514,2.396,22.877,7.18c6.347,4.783,9.833,11.936,10.427,21.456h10.852
		c-0.277-12.713-4.629-22.146-13.073-28.294c-8.441-6.146-18.857-9.203-31.251-9.172c-16.621,0.645-27.749,4.75-33.389,12.317
		c-5.635,7.567-8.263,14.728-7.845,21.481c0.222,9.5,2.876,16.471,7.969,20.907c5.114,4.439,11.365,7.479,18.751,9.124l27.155,6.808
		c6.024,1.277,11.682,3.614,16.943,7.005c5.267,3.394,8.081,8.568,8.415,15.519c-0.537,8.997-4.357,15.485-11.455,19.467
		c-7.1,3.978-14.168,5.928-21.194,5.846c-11.545,0.21-21.124-2.17-28.753-7.135c-7.624-4.965-11.456-13.758-11.524-26.384H908.412"
		/>
	<path fill-rule="evenodd" clip-rule="evenodd" fill="#010202" d="M1037.676,241.119h-10.832v26.825h-15.475v8.827h15.475v60.176
		c-0.182,7.335,1.203,12.458,4.146,15.372c2.935,2.914,7.975,4.313,15.112,4.197c3.211-0.11,6.42-0.223,9.626-0.333v-9.006
		c-3.099,0.339-6.195,0.509-9.275,0.509c-3.764-0.269-6.183-1.39-7.296-3.365c-1.107-1.976-1.594-4.716-1.481-8.223v-59.325h18.053
		v-8.827h-18.053V241.119"/>
	<path fill-rule="evenodd" clip-rule="evenodd" fill="#010202" d="M1130.298,322.177c-0.191,8.737-3.374,15.533-9.557,20.39
		c-6.177,4.857-13.677,7.322-22.511,7.395c-5.447-0.05-10.184-1.616-14.186-4.693c-4.011-3.078-6.107-7.344-6.3-12.8
		c0.582-8.226,5.33-13.386,14.235-15.482c8.891-2.094,18.401-3.735,28.529-4.931c1.621-0.229,3.401-0.63,5.316-1.201
		c1.917-0.571,3.29-1.486,4.109-2.744h0.362V322.177 M1082.271,295.076c0.306-7.163,2.679-12.394,7.126-15.694
		c4.442-3.303,10.168-4.934,17.153-4.888c6.691-0.153,12.273,1.054,16.762,3.623c4.488,2.568,6.82,7.42,6.985,14.557
		c-0.012,4.714-1.249,7.808-3.69,9.283c-2.431,1.478-5.962,2.381-10.558,2.724c-12.72,0.83-23.972,2.811-33.722,5.938
		c-9.766,3.126-14.902,10.639-15.417,22.536c0.21,8.858,3.165,15.358,8.861,19.498c5.708,4.137,12.901,6.186,21.565,6.14
		c8.63-0.026,15.435-1.557,20.419-4.592c5.002-3.035,9.349-7.42,13.055-13.157h0.351c-0.152,4.79,0.594,8.55,2.232,11.286
		c1.656,2.738,5.154,4.131,10.501,4.185c2.599,0.028,4.962-0.196,7.041-0.667v-8.85c-0.972,0.401-2.108,0.63-3.431,0.687
		c-4.278-0.113-6.403-2.294-6.374-6.544v-47.19c-0.375-11.514-3.899-19.18-10.579-23.001c-6.67-3.82-14.214-5.584-22.589-5.284
		c-10.54-0.074-19.097,2.237-25.664,6.935c-6.572,4.696-10.185,12.215-10.862,22.557L1082.271,295.076"/>
	
		<polygon fill="none" stroke="#010202" stroke-width="0.288" stroke-linecap="round" stroke-linejoin="round" stroke-miterlimit="10" points="
		1130.009,321.908 1127.229,334.409 1120.283,342.742 1110.563,348.298 1098.062,349.688 1091.116,348.298 1084.176,345.52 
		1080.006,339.965 1077.231,333.019 1078.621,327.463 1081.396,321.908 1085.561,319.13 1092.506,316.353 1120.283,312.188 
		1125.838,310.798 1130.009,308.021 	"/>
</g>
</svg>
